# AST/ASF file generated using VICON BodyLanguage
# -----------------------------------------------
:version 1.10
:name VICON
:units
  mass 1.0
  length 0.45
  angle deg
:documentation
   .ast/.asf automatically generated from VICON data using
   VICON BodyBuilder and BodyLanguage model FoxedUp or BRILLIANT.MOD
:root
   order TX TY TZ RX RY RZ
   axis XYZ
   position 0 0 0  
   orientation 0 0 0 
:bonedata
  begin
     id 1 
     name lhipjoint
     direction 0.521689 -0.742065 0.420928 
     length 2.47002 
     axis 0 0 0  XYZ
  end
  begin
     id 2 
     name lfemur
     direction 0.34202 -0.939693 0  
     length 7.24654  
     axis 0 0 20  XYZ
    dof rx ry rz
    limits (-160.0 20.0)
           (-70.0 70.0)
           (-60.0 70.0)
  end
  begin
     id 3 
     name ltibia
     direction 0.34202 -0.939693 0   
     length 8.04849   
     axis 0 0 20   XYZ
    dof rx
    limits (-10.0 170.0)
  end
  begin
     id 4 
     name lfoot
     direction 0.0745411 -0.2048 0.975961   
     length 1.72367   
     axis -90 7.62852e-016 20   XYZ
    dof rx rz
    limits (-45.0 90.0)
           (-70.0 20.0)
  end
  begin
     id 5 
     name ltoes
     direction 1.53556e-011 -4.21901e-011 1   
     length 0.87311   
     axis -90 7.62852e-016 20   XYZ
    dof rx
    limits (-90.0 20.0)
  end
  begin
     id 6 
     name rhipjoint
     direction -0.52849 -0.738415 0.418857   
     length 2.48223  
     axis 0 0 0  XYZ 
  end
  begin
     id 7 
     name rfemur
     direction -0.34202 -0.939693 0   
     length 7.15571   
     axis 0 0 -20   XYZ
    dof rx ry rz
    limits (-160.0 20.0)
           (-70.0 70.0)
           (-70.0 60.0)
  end
  begin
     id 8 
     name rtibia
     direction -0.34202 -0.939693 0   
     length 7.81659   
     axis 0 0 -20   XYZ
    dof rx
    limits (-10.0 170.0)
 end
 begin
     id 9 
     name rfoot
     direction -0.0917348 -0.252039 0.963359   
     length 1.84382  
     axis -90 -7.62852e-016 -20   XYZ
    dof rx rz
    limits (-45.0 90.0)
           (-20.0 70.0)
  end
  begin
     id 10 
     name rtoes
     direction -1.53551e-011 -4.21879e-011 1   
     length 0.927771   
     axis -90 -7.62852e-016 -20   XYZ
    dof rx
    limits (-90.0 20.0)
  end
  begin
     id 11 
     name lowerback
     direction 0.00583058 0.999822 0.0179296   
     length 2.1429   
     axis 0 0 0   XYZ
    dof rx ry rz
    limits (-20.0 45.0)
           (-30.0 30.0)
           (-30.0 30.0)
  end
  begin
     id 12 
     name upperback
     direction -0.0137999 0.999752 -0.0175071   
     length 2.14252   
     axis 0 0 0   XYZ
    dof rx ry rz
    limits (-20.0 45.0)
           (-30.0 30.0)
           (-30.0 30.0)
  end
  begin
     id 13 
     name thorax
     direction -0.0158036 0.99955 -0.0254909   
     length 2.1383   
     axis 0 0 0   XYZ
    dof rx ry rz
    limits (-20.0 45.0)
           (-30.0 30.0)
           (-30.0 30.0)
  end
  begin
     id 14 
     name lowerneck
     direction -0.0101179 0.999403 -0.0330262   
     length 1.65808   
     axis 0 0 0   XYZ
    dof rx ry rz
    limits (-20.0 45.0)
           (-30.0 30.0)
           (-30.0 30.0)
  end
  begin
     id 15 
     name upperneck
     direction 0.0497734 0.995978 -0.074501   
     length 1.5897   
     axis 0 0 0   XYZ
    dof rx ry rz
    limits (-20.0 45.0)
           (-30.0 30.0)
           (-30.0 30.0)
  end
  begin
     id 16
     name head
     direction 0.0189524 0.999519 -0.0245438  
     length 1.74024  
     axis 0 0 0   XYZ
    dof rx ry rz
    limits (-20.0 45.0)
           (-30.0 30.0)
           (-30.0 30.0)
  end
  begin
     id 17 
     name lclavicle
     direction 0.945604 0.324422 0.0241537  
     length 3.59089  
     axis 0 0 0   XYZ
    dof ry rz
    limits (-20.0 10.0)
           (0.0 20.0)
  end
  begin
     id 18 
     name lhumerus
     direction 1 -4.48964e-011 -2.63524e-027   
     length 5.2391   
     axis 180 -30 -90   XYZ
    dof rx ry rz
    limits (-60.0 90.0)
           (-90.0 90.0)
           (-90.0 90.0)
  end
  begin
     id 19
     name lradius
     direction 1 -4.48969e-011 3.86978e-028   
     length 3.31467   
     axis 180 -30 -90   XYZ
    dof rx
    limits (-10.0 170.0)
  end
  begin
     id 20
     name lwrist
     direction 1 -4.48963e-011 7.20928e-028   
     length 1.65734   
     axis -5.52449e-016 90 90   XYZ
    dof ry
    limits (-180.0 0.0)
 end
  begin
     id 21 
     name lhand
     direction 1 -4.48964e-011 1.44186e-027   
     length 0.9659   
     axis -9.20027e-016 90 90   XYZ
    dof rx rz
    limits (-90.0 90.0)
           (-45.0 45.0)
  end
  begin
     id 22 
     name lfingers
     direction 1 -4.48965e-011 2.88371e-027   
     length 0.778733   
     axis -1.84005e-015 90 90   XYZ
    dof rx
    limits (0.0 90.0)
  end
  begin
     id 23
     name lthumb
     direction 0.707107 -6.34931e-011 0.707107   
     length 1.11811   
     axis -90 45 2.85299e-015   XYZ
    dof rx rz
    limits (-45.0 45.0)
           (-45.0 45.0)
  end
  begin
     id 24 
     name rclavicle
     direction -0.923762 0.370785 0.0958234   
     length 3.54196  
     axis 0 0 0   XYZ 
    dof ry rz
    limits (-10.0 20.0)
           (-20.0 0.0)
  end
  begin
     id 25 
     name rhumerus
     direction -1 -4.48966e-011 1.18702e-017  
     length 5.30252   
     axis 180 30 90   XYZ
    dof rx ry rz
    limits (-90.0 60.0)
           (-90.0 90.0)
           (-90.0 90.0)
  end
  begin
     id 26 
     name rradius
     direction -1 -4.48966e-011 4.46736e-027   
     length 3.67875   
     axis 180 30 90   XYZ
    dof rx
    limits (-10.0 170.0)
  end
  begin
     id 27 
     name rwrist
     direction -1 -4.48966e-011 7.20928e-028   
     length 1.83937   
     axis -5.52449e-016 -90 -90   XYZ
    dof ry
    limits (-180.0 0.0)
  end
  begin
     id 28
     name rhand
     direction -1 -4.48973e-011 1.44186e-027   
     length 0.594811   
     axis -9.20027e-016 -90 -90   XYZ
    dof rx rz
    limits (-90.0 90.0)
           (-45.0 45.0)
  end
  begin
     id 29
     name rfingers
     direction -1 -4.48963e-011 2.88371e-027   
     length 0.479552   
     axis -1.84005e-015 -90 -90   XYZ
    dof rx
    limits (0.0 90.0)
  end
  begin
     id 30
     name rthumb
     direction -0.707107 -6.34932e-011 0.707107   
     length 0.688544   
     axis -90 -45 -2.85299e-015   XYZ
    dof rx rz
    limits (-45.0 45.0)
           (-45.0 45.0)
  end
:hierarchy
  begin
    root lhipjoint rhipjoint lowerback
    lhipjoint lfemur
    lfemur ltibia
    ltibia lfoot
    lfoot ltoes
    rhipjoint rfemur
    rfemur rtibia
    rtibia rfoot
    rfoot rtoes
    lowerback upperback
    upperback thorax
    thorax lowerneck lclavicle rclavicle
    lowerneck upperneck
    upperneck head
    lclavicle lhumerus
    lhumerus lradius
    lradius lwrist
    lwrist lhand lthumb
    lhand lfingers
    rclavicle rhumerus
    rhumerus rradius
    rradius rwrist
    rwrist rhand rthumb
    rhand rfingers
  end

#!OML:ASF E:\acrobat2\Project_11_07_03\Capture day 1\Session 1\Acrobat.ASF
:FULLY-SPECIFIED
:DEGREES
139
root 8.9909 17.9975 -32.156 103.54 -89.075 -99.1015
lowerback -7.0303 0.789803 2.08781
upperback -4.28774 0.813789 -0.560973
thorax -0.443505 0.311855 -1.69514
lowerneck -4.04821 3.25162 0.901004
upperneck 8.37916 3.88214 4.09805
head 3.34526 2.08658 1.34107
rclavicle -9.93923e-017 -2.98177e-015
rhumerus -12.7283 -28.5955 -6.90324
rradius 21.0392
rwrist 18.9557
rhand -6.47015 -49.8703
rfingers 7.12502
rthumb 19.3803 -78.9246
lclavicle -9.93923e-017 -2.98177e-015
lhumerus 1.00568 12.7322 7.40897
lradius 20.221
lwrist 3.27456
lhand -7.24291 -6.10583
lfingers 7.12502
lthumb 18.6372 23.0214
rfemur 7.93148 16.377 14.2877
rtibia -2.55998
rfoot -24.8994 -29.0851
rtoes 2.958
lfemur 8.35706 -8.78205 -6.83648
ltibia -2.74032
lfoot -28.3793 7.40928
ltoes 36.5057
140
root 8.99544 17.998 -32.1571 106.172 -89.1565 -101.739
lowerback -6.98949 0.809663 1.99247
upperback -4.29105 0.846834 -0.593259
thorax -0.468698 0.32955 -1.6731
lowerneck -4.00373 3.27875 1.00251
upperneck 8.39077 3.91624 4.038
head 3.34322 2.10392 1.30419
rclavicle -3.52843e-015 2.98177e-015
rhumerus -12.7987 -28.5929 -6.87309
rradius 21.036
rwrist 18.9968
rhand -6.48218 -49.8001
rfingers 7.12502
rthumb 19.3688 -78.8555
lclavicle -3.52843e-015 2.98177e-015
lhumerus 1.07208 12.7143 7.42201
lradius 20.2495
lwrist 3.28468
lhand -7.2291 -6.10025
lfingers 7.12502
lthumb 18.6505 23.0257
rfemur 7.92628 16.5327 14.216
rtibia -2.55515
rfoot -24.9955 -29.2286
rtoes 2.10265
lfemur 8.40422 -9.17772 -7.00756
ltibia -2.76006
lfoot -28.926 6.72918
ltoes 38.7309
141
root 8.99955 17.9986 -32.1565 105.64 -89.0982 -101.206
lowerback -6.9656 0.819867 2.07672
upperback -4.29195 0.85633 -0.584348
thorax -0.481514 0.332797 -1.71088
lowerneck -3.98564 3.32451 1.06792
upperneck 8.44923 3.97386 3.99801
head 3.36106 2.13327 1.28289
rclavicle 4.52235e-015 -1.19271e-015
rhumerus -12.819 -28.5493 -6.88442
rradius 21.0246
rwrist 18.9686
rhand -6.54337 -49.8103
rfingers 7.12502
rthumb 19.3099 -78.8716
lclavicle 4.52235e-015 -1.19271e-015
lhumerus 1.02536 12.4382 7.34923
lradius 20.3168
lwrist 3.51072
lhand -7.21601 -6.13554
lfingers 7.12502
lthumb 18.6631 22.9892
rfemur 7.90141 16.5839 14.3047
rtibia -2.54156
rfoot -24.9517 -29.3062
rtoes 1.8918
lfemur 8.41597 -9.31129 -6.94998
ltibia -2.75147
lfoot -29.1696 6.08544
ltoes 40.2979
142
root 9.0021 17.9983 -32.154 104.778 -89.0902 -100.382
lowerback -6.92669 0.825855 2.14181
upperback -4.27002 0.862629 -0.592537
thorax -0.479186 0.335435 -1.75573
lowerneck -4.08763 3.372 1.15307
upperneck 8.64476 4.03167 3.87788
head 3.45173 2.16296 1.23829
rclavicle -4.34841e-015 -4.37326e-015
rhumerus -12.8566 -28.4986 -6.8819
rradius 21.0319
rwrist 18.958
rhand -6.58972 -49.8145
rfingers 7.12502
rthumb 19.2654 -78.8802
lclavicle -4.34841e-015 -4.37326e-015
lhumerus 1.00665 12.2847 7.35334
lradius 20.366
lwrist 3.67199
lhand -7.29488 -6.12156
lfingers 7.12502
lthumb 18.5872 23.0104
rfemur 7.93276 16.4558 14.2947
rtibia -2.56057
rfoot -24.92 -29.191
rtoes 2.642
lfemur 8.47397 -9.36733 -6.97985
ltibia -2.7758
lfoot -29.2674 5.91513
ltoes 40.6416
143
root 9.00468 17.9983 -32.1525 103.563 -89.1118 -99.1815
lowerback -6.90712 0.838116 2.15043
upperback -4.26058 0.879478 -0.608794
thorax -0.479141 0.343873 -1.77638
lowerneck -4.1501 3.39749 1.3295
upperneck 8.76577 4.06636 3.6573
head 3.51361 2.17918 1.14118
rclavicle -7.45443e-015 1.15295e-014
rhumerus -12.9345 -28.5152 -6.8377
rradius 21.0323
rwrist 19.0327
rhand -6.53307 -49.8147
rfingers 7.12502
rthumb 19.3198 -78.875
lclavicle -7.45443e-015 1.15295e-014
lhumerus 1.07797 12.2577 7.39788
lradius 20.4066
lwrist 3.73519
lhand -7.19419 -5.9026
lfingers 7.12502
lthumb 18.684 23.2201
rfemur 7.92705 16.3408 14.2404
rtibia -2.54408
rfoot -24.9257 -29.1168
rtoes 2.84519
lfemur 8.46784 -9.28709 -6.98009
ltibia -2.78155
lfoot -29.1251 6.09121
ltoes 40.1928
144
root 9.00786 17.9992 -32.1521 102.344 -89.095 -97.9562
lowerback -6.8944 0.850661 2.19209
upperback -4.26542 0.894173 -0.625998
thorax -0.48972 0.350083 -1.81672
lowerneck -4.06747 3.40398 1.5099
upperneck 8.69247 4.07966 3.50682
head 3.47893 2.18436 1.05741
rclavicle 2.98177e-016 -3.97569e-016
rhumerus -13.0148 -28.5487 -6.81766
rradius 21.0309
rwrist 19.0959
rhand -6.50658 -49.8737
rfingers 7.12502
rthumb 19.3453 -78.9315
lclavicle 2.98177e-016 -3.97569e-016
lhumerus 1.2183 12.3522 7.43771
lradius 20.3369
lwrist 3.53788
lhand -7.01714 -5.75524
lfingers 7.12502
lthumb 18.8543 23.351
rfemur 7.89428 16.3193 14.2545
rtibia -2.51247
rfoot -24.878 -29.1411
rtoes 2.41103
lfemur 8.41252 -9.08199 -6.88805
ltibia -2.7421
lfoot -28.9779 5.69995
ltoes 41.0137
145
root 9.01116 17.9997 -32.152 103.179 -89.1019 -98.7802
lowerback -6.88506 0.869246 2.23096
upperback -4.26837 0.91704 -0.666574
thorax -0.495739 0.360231 -1.87899
lowerneck -4.00586 3.42538 1.64801
upperneck 8.61635 4.10534 3.46998
head 3.44417 2.1987 1.01933
rclavicle -6.95746e-016 1.98785e-015
rhumerus -13.0836 -28.3913 -6.8238
rradius 21.0211
rwrist 18.9434
rhand -6.51168 -49.9839
rfingers 7.12502
rthumb 19.3404 -79.0421
lclavicle -6.95746e-016 1.98785e-015
lhumerus 1.46922 12.5054 7.51112
lradius 20.1351
lwrist 3.24382
lhand -7.0608 -5.71127
lfingers 7.12502
lthumb 18.8123 23.399
rfemur 7.86936 16.4091 14.2579
rtibia -2.50354
rfoot -24.9651 -29.1626
rtoes 2.58399
lfemur 8.41827 -9.31318 -6.96787
ltibia -2.76013
lfoot -29.3516 5.19624
ltoes 42.4946
146
root 9.01452 18.0014 -32.1519 103.699 -89.1247 -99.2812
lowerback -6.88674 0.897565 2.25506
upperback -4.27453 0.953249 -0.712743
thorax -0.498363 0.37718 -1.93778
lowerneck -3.98632 3.47454 1.71207
upperneck 8.59382 4.16448 3.50445
head 3.43273 2.23086 1.02099
rclavicle 1.4238e-014 -7.95139e-016
rhumerus -13.1876 -28.1626 -6.79452
rradius 21.0234
rwrist 18.7052
rhand -6.5474 -50.074
rfingers 7.12502
rthumb 19.3061 -79.1357
lclavicle 1.4238e-014 -7.95139e-016
lhumerus 1.51594 12.3135 7.47993
lradius 20.1975
lwrist 3.34417
lhand -7.22527 -5.67072
lfingers 7.12502
lthumb 18.6542 23.4548
rfemur 7.82717 16.4231 14.2207
rtibia -2.49371
rfoot -24.9248 -29.1645
rtoes 2.78325
lfemur 8.38186 -9.36384 -7.01464
ltibia -2.7495
lfoot -29.3557 5.55164
ltoes 41.8191
147
root 9.01836 18.0024 -32.1516 101.158 -89.0843 -96.7108
lowerback -6.8964 0.915617 2.35979
upperback -4.28636 0.970899 -0.748501
thorax -0.502386 0.383287 -2.0323
lowerneck -3.96882 3.51903 1.75723
upperneck 8.60939 4.21689 3.54101
head 3.43455 2.25948 1.02721
rclavicle -1.2101e-014 -5.96354e-016
rhumerus -13.3237 -28.1543 -6.79248
rradius 21.0501
rwrist 18.6642
rhand -6.62416 -50.0885
rfingers 7.12502
rthumb 19.2323 -79.1575
lclavicle -1.2101e-014 -5.96354e-016
lhumerus 1.60637 12.3277 7.48463
lradius 20.1993
lwrist 3.27543
lhand -7.30917 -5.73995
lfingers 7.12502
lthumb 18.5735 23.3933
rfemur 7.77694 16.3517 14.2467
rtibia -2.47835
rfoot -24.9253 -29.093
rtoes 3.36623
lfemur 8.2405 -8.83701 -6.79474
ltibia -2.629
lfoot -28.7659 5.62748
ltoes 41.0093
148
root 9.02199 18.0017 -32.1506 99.6981 -88.9906 -95.2462
lowerback -6.88126 0.915045 2.53305
upperback -4.28651 0.961099 -0.759747
thorax -0.508968 0.375031 -2.14209
lowerneck -3.93026 3.55726 1.73562
upperneck 8.59999 4.26423 3.61472
head 3.42126 2.28441 1.05573
rclavicle 5.09386e-015 3.57812e-015
rhumerus -13.3438 -28.1141 -6.87263
rradius 21.0431
rwrist 18.5912
rhand -6.74148 -50.0508
rfingers 7.12502
rthumb 19.1194 -79.1311
lclavicle 5.09386e-015 3.57812e-015
lhumerus 1.58692 12.0825 7.3809
lradius 20.2287
lwrist 3.57615
lhand -7.39485 -5.77226
lfingers 7.12502
lthumb 18.491 23.3689
rfemur 7.76563 16.3823 14.3673
rtibia -2.46283
rfoot -25.1365 -29.0532
rtoes 3.99452
lfemur 8.16689 -8.48915 -6.56864
ltibia -2.55915
lfoot -28.4111 5.57042
ltoes 40.7658
149
root 9.02544 18.0017 -32.1492 99.5673 -88.9512 -95.1452
lowerback -6.83125 0.883542 2.61357
upperback -4.27516 0.916765 -0.72462
thorax -0.526896 0.352004 -2.15449
lowerneck -3.87415 3.6098 1.56517
upperneck 8.56634 4.34234 3.70893
head 3.39164 2.32051 1.11675
rclavicle -1.31695e-015 -1.19271e-015
rhumerus -13.1943 -28.0271 -6.96522
rradius 21.0118
rwrist 18.521
rhand -6.78078 -50.0515
rfingers 7.12502
rthumb 19.0817 -79.1355
lclavicle -1.31695e-015 -1.19271e-015
lhumerus 1.43946 11.8105 7.27403
lradius 20.2725
lwrist 3.90897
lhand -7.50082 -5.74942
lfingers 7.12502
lthumb 18.3891 23.4014
rfemur 7.78962 16.4585 14.4444
rtibia -2.44725
rfoot -25.2563 -29.1213
rtoes 3.88007
lfemur 8.20088 -8.58038 -6.55024
ltibia -2.58638
lfoot -28.4793 5.76224
ltoes 40.4196
150
root 9.02972 18.0017 -32.1491 97.2841 -88.8833 -92.8643
lowerback -6.79557 0.856406 2.7086
upperback -4.27904 0.87659 -0.687961
thorax -0.552346 0.330217 -2.17309
lowerneck -3.85052 3.64156 1.49469
upperneck 8.5911 4.38853 3.72475
head 3.393 2.34182 1.13584
rclavicle 1.06101e-014 -1.59028e-015
rhumerus -13.1301 -27.9948 -6.99879
rradius 21.0278
rwrist 18.5148
rhand -6.66227 -50.1155
rfingers 7.12502
rthumb 19.1956 -79.1881
lclavicle 1.06101e-014 -1.59028e-015
lhumerus 1.34831 11.6184 7.2073
lradius 20.2884
lwrist 4.13187
lhand -7.54622 -5.7678
lfingers 7.12502
lthumb 18.3454 23.3871
rfemur 7.79584 16.5291 14.5639
rtibia -2.44522
rfoot -25.173 -29.2461
rtoes 3.42961
lfemur 8.20525 -8.62276 -6.45787
ltibia -2.64058
lfoot -28.5311 5.43533
ltoes 41.2584
151
root 9.0332 18.002 -32.1487 95.8922 -88.7514 -91.4645
lowerback -6.784 0.857903 2.88255
upperback -4.27924 0.869532 -0.667479
thorax -0.557698 0.323637 -2.25032
lowerneck -3.85326 3.65796 1.50256
upperneck 8.62051 4.40465 3.76503
head 3.40288 2.35171 1.14906
rclavicle 3.37934e-015 3.37934e-015
rhumerus -13.1386 -27.9695 -7.02638
rradius 21.0366
rwrist 18.4596
rhand -6.6192 -50.1931
rfingers 7.12502
rthumb 19.237 -79.2617
lclavicle 3.37934e-015 3.37934e-015
lhumerus 1.35065 11.5903 7.18237
lradius 20.2907
lwrist 4.23341
lhand -7.52673 -5.81197
lfingers 7.12502
lthumb 18.3642 23.3412
rfemur 7.78446 16.5011 14.7226
rtibia -2.45822
rfoot -24.8458 -29.3418
rtoes 2.36782
lfemur 8.19218 -8.41981 -6.21963
ltibia -2.68804
lfoot -28.3208 5.1253
ltoes 41.9715
